<?xml version="1.0" encoding="utf-8"?>
<!-- Generator: Adobe Illustrator 24.2.1, SVG Export Plug-In . SVG Version: 6.00 Build 0)  -->
<svg version="1.1" id="Layer_1" xmlns="http://www.w3.org/2000/svg" xmlns:xlink="http://www.w3.org/1999/xlink" x="0px" y="0px"
	 viewBox="0 0 1040 1040" enable-background="new 0 0 1040 1040" xml:space="preserve">
<g>
	<path fill="none" stroke="#6B63AC" stroke-width="8" stroke-miterlimit="10" d="M1009.75,867.24c-147.01,0-291,0-437.5,0
		c68.43-133.17,136.13-264.92,205.52-399.95C855.66,601.57,932.01,733.21,1009.75,867.24z"/>
	<path fill="none" stroke="#0E0D0D" stroke-width="8" stroke-miterlimit="10" d="M232.59,571.14
		c-16.13-31.34-30.93-60.13-45.75-88.9C136.32,384.1,85.82,285.95,35.27,187.83c-7.79-15.11-7.88-15.07,9.57-15.07
		c134.43,0,268.86,0,403.28,0c4.13,0,8.26,0,15.55,0C386.57,305.7,310.43,436.94,232.59,571.14z"/>
	<path fill="none" stroke="#0E0D0D" stroke-width="8" stroke-miterlimit="10" d="M320.16,857.22c-27.99,2.78-56.05,0.95-84.08,1.17
		c-11.28,0.09-14.08-4.76-8.36-14.91c12.33-21.85,25.66-43.14,38.17-64.9c35.95-62.57,71.47-125.38,107.57-187.86
		c64.36-111.4,129.02-222.63,193.58-333.92c10.8-18.62,22.06-36.99,32.44-55.85c4.89-8.88,7.94-8.19,12.45-0.04
		c14.62,26.42,29.49,52.7,44.27,79.03c-26.16,44.44-52.51,88.77-78.42,133.35c-16.33,28.1-32.19,56.47-47.89,84.93
		c-14.67,26.58-32.17,51.66-45.87,78.56c-25,49.07-52.77,96.58-79.02,144.93c-18.87,34.77-40.52,68.02-59.29,102.94
		C339.28,836.59,333.33,850.04,320.16,857.22z"/>
	<path fill="none" stroke="#6B63AC" stroke-width="8" stroke-miterlimit="10" d="M320.16,857.22c13.17-7.18,19.12-20.62,25.54-32.56
		c18.77-34.92,40.42-68.17,59.29-102.94c26.24-48.35,54.01-95.86,79.02-144.93c13.71-26.9,31.21-51.99,45.87-78.56
		c15.7-28.45,31.57-56.83,47.89-84.93c25.91-44.58,52.25-88.91,78.42-133.35c4.13-0.04,5.09,3.41,6.64,6.1
		c7.78,13.49,13.74,28.5,23.64,40.19c17.26,20.38,12.18,36.94,0.01,58.12c-87.44,152.27-173.69,305.22-259.74,458.29
		c-7.24,12.89-14.94,18.16-29.9,17.11c-21.09-1.48-42.37-0.27-63.56-0.45C328.88,859.26,324.02,861,320.16,857.22z"/>
</g>
</svg>
